/vscmnt/brussel_pixiu_data/_data_brussel/112/vsc11236/PredSimResults/SUBJ06mtu3D/worker9.mot
version=1
nRows=9
nColumns=50
inDegrees=yes
endheader
                time	         pelvis_tilt	         pelvis_list	     pelvis_rotation	           pelvis_tx	           pelvis_ty	           pelvis_tz	       hip_flexion_r	     hip_adduction_r	      hip_rotation_r	        knee_angle_r	       ankle_angle_r	         mtp_angle_r	       hip_flexion_l	     hip_adduction_l	      hip_rotation_l	        knee_angle_l	       ankle_angle_l	         mtp_angle_l	    lumbar_extension	      lumbar_bending	     lumbar_rotation	 ercspn_r/activation	 intobl_r/activation	 extobl_r/activation	    abd_r/activation	    add_r/activation	hamstrings_r/activation	bifemsh_r/activation	glut_max_r/activation	iliopsoas_r/activation	rect_fem_r/activation	  vasti_r/activation	gastroc_r/activation	 soleus_r/activation	tib_ant_r/activation	 ercspn_l/activation	 intobl_l/activation	 extobl_l/activation	    abd_l/activation	    add_l/activation	hamstrings_l/activation	bifemsh_l/activation	glut_max_l/activation	iliopsoas_l/activation	rect_fem_l/activation	  vasti_l/activation	gastroc_l/activation	 soleus_l/activation	tib_ant_l/activation	
          1.88412807	         -6.86033400	          2.53988048	         -7.05232694	          2.11022344	          0.93031743	          0.01414573	        -10.09174531	         -2.14157895	          4.16004037	         -8.50064730	         10.47786353	         28.54543518	         31.17140692	         -0.18570062	         -3.36909443	         -3.86959233	          6.06222029	          0.21232764	         -3.63685416	         -0.68266494	         -0.08791938	          0.06935496	          0.01000000	          0.01000000	          0.05532994	          0.01000007	          0.01437905	          0.12678814	          0.04575187	          0.37693573	          0.01209294	          0.01000004	          0.35214254	          0.32465219	          0.02138966	          0.12405393	          0.18418109	          0.01377399	          0.01209345	          0.09663850	          0.13696467	          0.22760618	          0.01240498	          0.12980463	          0.01000003	          0.01000000	          0.03196987	          0.01000000	          0.34343946	
          1.89668892	         -6.92808196	          2.46455425	         -7.07015567	          2.12730387	          0.92827006	          0.01347755	        -10.43169690	         -2.14676421	          3.73039395	         -9.68229183	          9.79080668	         30.49265121	         31.13747902	         -0.04700535	         -3.07875078	         -5.34242360	          5.63609808	          0.20734061	         -3.32059833	         -0.93010486	          0.20281351	          0.10026337	          0.01000000	          0.01000001	          0.04575189	          0.04086026	          0.01702912	          0.10484012	          0.03783187	          0.38774255	          0.01000021	          0.01706958	          0.32582895	          0.30582682	          0.01768694	          0.10257924	          0.17794132	          0.01138961	          0.01000000	          0.12361407	          0.12214156	          0.18820579	          0.05795079	          0.10733443	          0.01000006	          0.01000001	          0.03182872	          0.02138985	          0.34883366	
          1.90924977	         -6.98141021	          2.39165115	         -7.03670142	          2.14469524	          0.92645551	          0.01272378	        -10.65102397	         -2.14908174	          3.26788320	        -11.12429272	          8.94268118	         32.49315872	         30.96472695	          0.08247534	         -2.78536711	         -6.79720504	          5.23054698	          0.19704320	         -2.98913826	         -1.19566291	          0.48887510	          0.09555690	          0.01000000	          0.01000001	          0.03783188	          0.03378704	          0.01408323	          0.08669148	          0.03128287	          0.39189027	          0.01000052	          0.02586753	          0.29727767	          0.28253633	          0.01462520	          0.09845486	          0.14980002	          0.01000000	          0.05906945	          0.10636165	          0.11017985	          0.15562595	          0.10018135	          0.08875399	          0.01000000	          0.01000000	          0.02631892	          0.01768710	          0.41336622	
          1.92181063	         -7.02274337	          2.31108347	         -6.95124412	          2.16214430	          0.92508921	          0.01187477	        -10.66500934	         -2.13524795	          2.77681961	        -12.93176719	          7.88005100	         34.53204401	         30.70249548	          0.21749784	         -2.54094849	         -8.07105395	          4.62980802	          0.17536641	         -2.67137659	         -1.46623273	          0.76177009	          0.12756431	          0.01000000	          0.01000000	          0.03128289	          0.04429857	          0.02749678	          0.07168451	          0.02586756	          0.39144827	          0.01214080	          0.02138966	          0.24668366	          0.24102153	          0.01209346	          0.10679032	          0.12386847	          0.01000000	          0.11571671	          0.14940520	          0.09666664	          0.12868589	          0.14202129	          0.07338998	          0.01000000	          0.01000000	          0.02176291	          0.01462533	          0.44410816	
          1.93437148	         -7.05082891	          2.22901846	         -6.82096420	          2.17946748	          0.92430699	          0.01094576	        -10.38745339	         -2.11142806	          2.25898985	        -15.23413434	          6.60819769	         36.50372492	         30.41737092	          0.36554411	         -2.33230567	         -9.34524605	          4.19947942	          0.14444992	         -2.38288510	         -1.74750311	          1.01835965	          0.15438907	          0.01000000	          0.01000000	          0.02586757	          0.07455002	          0.02407282	          0.05927537	          0.02138969	          0.37836844	          0.01003920	          0.01768695	          0.20398078	          0.19929881	          0.00999999	          0.11072545	          0.10242587	          0.01000000	          0.15551848	          0.18175251	          0.08642024	          0.10640936	          0.17307967	          0.06068560	          0.01000001	          0.02069955	          0.01799558	          0.01209359	          0.46585201	
          1.94693234	         -7.06506553	          2.14748615	         -6.65009519	          2.19653451	          0.92416943	          0.00995953	         -9.76125466	         -2.08239820	          1.70531352	        -18.10957828	          5.14520312	         38.20236827	         30.11387615	          0.52450377	         -2.14850591	        -10.62444470	          3.99647833	          0.11995834	         -2.13208015	         -2.04060988	          1.25458444	          0.17171945	          0.01000000	          0.01000001	          0.02138969	          0.11186284	          0.02224768	          0.04901435	          0.01768696	          0.34740159	          0.01000002	          0.01462520	          0.16867011	          0.16479862	          0.01000000	          0.10367428	          0.08469515	          0.01000000	          0.17840948	          0.18230236	          0.08115293	          0.08798908	          0.17933476	          0.05018045	          0.01000001	          0.07981567	          0.01488042	          0.01000013	          0.47222908	
          1.95949319	         -7.06745213	          2.06442330	         -6.44214306	          2.21324624	          0.92472699	          0.00894625	         -8.76780045	         -2.05487230	          1.10511527	        -21.56267671	          3.55903407	         39.22734834	         29.72446052	          0.69148699	         -1.96911834	        -11.75526952	          3.94495137	          0.09880843	         -1.92468668	         -2.34253141	          1.46729343	          0.16989619	          0.01000000	          0.01000001	          0.01768697	          0.12631444	          0.01839675	          0.04052963	          0.01462521	          0.30363850	          0.01000001	          0.01209346	          0.13947199	          0.13627069	          0.01000000	          0.09039522	          0.07003375	          0.01000000	          0.17962585	          0.15074443	          0.07658151	          0.07275749	          0.16749219	          0.04149382	          0.01000000	          0.13562469	          0.01230452	          0.01000004	          0.46574052	
          1.97205404	         -7.06062018	          1.97283469	         -6.20046293	          2.22954405	          0.92597758	          0.00793275	         -7.42435513	         -2.03650275	          0.46052689	        -25.53719013	          1.90357938	         39.21994044	         29.19884912	          0.85848764	         -1.77665820	        -12.63741156	          4.03369933	          0.08303615	         -1.76520302	         -2.64449491	          1.65405866	          0.17461007	          0.01000000	          0.01000001	          0.01462522	          0.12812025	          0.01521224	          0.04423330	          0.01209347	          0.25318444	          0.01000001	          0.00999999	          0.11532829	          0.11268116	          0.00999999	          0.07474712	          0.05791036	          0.01000000	          0.17202983	          0.12464939	          0.07201515	          0.06016261	          0.15121027	          0.03431091	          0.01000000	          0.17295104	          0.01017456	          0.01000060	          0.45169201	
          1.98461490	         -7.04641699	          1.86617603	         -5.92600006	          2.24543062	          0.92785047	          0.00692984	         -5.78648629	         -2.03359866	         -0.20857612	        -29.87155915	          0.05163111	         38.21778853	         28.51129920	          1.01669695	         -1.56653169	        -13.22007603	          4.24103976	          0.07493295	         -1.65204263	         -2.93581478	          1.81226908	          0.17987479	          0.01000000	          0.01000001	          0.01209348	          0.13445043	          0.01257896	          0.07529199	          0.01000000	          0.20935623	          0.01000001	          0.00999999	          0.09536406	          0.09317517	          0.02512278	          0.06180782	          0.04788563	          0.01000000	          0.16471123	          0.10307160	          0.07017830	          0.04974800	          0.13941163	          0.02837142	          0.01000000	          0.19033215	          0.01000001	          0.01000001	          0.43267871	
